<?xml version="1.0" encoding="UTF-8" standalone="no"?>
<svg
   xmlns:dc="http://purl.org/dc/elements/1.1/"
   xmlns:cc="http://creativecommons.org/ns#"
   xmlns:rdf="http://www.w3.org/1999/02/22-rdf-syntax-ns#"
   xmlns:svg="http://www.w3.org/2000/svg"
   xmlns="http://www.w3.org/2000/svg"
   xmlns:sodipodi="http://sodipodi.sourceforge.net/DTD/sodipodi-0.dtd"
   xmlns:inkscape="http://www.inkscape.org/namespaces/inkscape"
   version="1.1"
   x="0px"
   y="0px"
   viewBox="0 0 108 108"
   enable-background="new 0 0 100 100"
   xml:space="preserve"
   id="svg34"
   sodipodi:docname="open.svg"
   width="120"
   height="120"
   inkscape:version="0.92.2 (5c3e80d, 2017-08-06)"><metadata
     id="metadata40"><rdf:RDF><cc:Work
         rdf:about=""><dc:format>image/svg+xml</dc:format><dc:type
           rdf:resource="http://purl.org/dc/dcmitype/StillImage" /><dc:title /></cc:Work></rdf:RDF></metadata><defs
     id="defs38" /><sodipodi:namedview
     pagecolor="#ffffff"
     bordercolor="#666666"
     borderopacity="1"
     objecttolerance="10"
     gridtolerance="10"
     guidetolerance="10"
     inkscape:pageopacity="0"
     inkscape:pageshadow="2"
     inkscape:window-width="1920"
     inkscape:window-height="1017"
     id="namedview36"
     showgrid="false"
     inkscape:pagecheckerboard="true"
     inkscape:zoom="5.3400704"
     inkscape:cx="38.524594"
     inkscape:cy="71.238069"
     inkscape:window-x="-8"
     inkscape:window-y="-8"
     inkscape:window-maximized="1"
     inkscape:current-layer="svg34" /><g
     id="g4"
     transform="translate(4)"
     style="fill:#ffffff"><path
       d="M 65.545,63.632 51.664,56.95 V 91 L 80.879,76.941 v -19.99 l -13.881,6.681 c -0.458,0.22 -0.994,0.22 -1.453,0 z"
       id="path2"
       inkscape:connector-curvature="0"
       style="fill:#ffffff"
       sodipodi:nodetypes="ccccccc" /></g><g
     id="g8"
     transform="translate(4)"
     style="fill:#ffffff"><path
       d="m 34.455,63.632 c -0.459,0.22 -0.994,0.22 -1.452,0 L 19.122,56.951 v 19.99 L 48.335,91 V 56.951 Z"
       id="path6"
       inkscape:connector-curvature="0"
       style="fill:#ffffff"
       sodipodi:nodetypes="ccccccc" /></g><polygon
     points="66.271,60.311 95,46.484 82.542,40.49 53.815,54.316 "
     id="polygon10"
     style="fill:#ffffff"
     transform="translate(4)" /><polygon
     points="82.542,36.818 95,30.824 66.271,17 53.815,22.994 78.938,35.084 "
     id="polygon12"
     style="fill:#ffffff"
     transform="translate(4)" /><polygon
     points="17.458,40.49 5,46.484 33.729,60.311 46.185,54.316 "
     id="polygon14"
     style="fill:#ffffff"
     transform="translate(4)" /><polygon
     points="21.062,35.084 46.185,22.994 33.729,17 5,30.824 17.458,36.818 "
     id="polygon16"
     style="fill:#ffffff"
     transform="translate(4)" /><g
     id="g20"
     transform="translate(4)"
     style="fill:#ffffff"><polygon
       points="46.632,50.859 50,52.479 53.368,50.859 50,49.238 "
       id="polygon18"
       style="fill:#ffffff" /></g><g
     id="g24"
     transform="translate(4)"
     style="fill:#ffffff"><polygon
       points="78.728,38.654 60.632,29.945 51.664,25.631 51.664,46.368 57.182,49.023 "
       id="polygon22"
       style="fill:#ffffff" /></g><g
     id="g28"
     transform="translate(4)"
     style="fill:#ffffff"><polygon
       points="48.336,25.631 33.588,32.727 21.272,38.654 42.818,49.023 48.336,46.368 "
       id="polygon26"
       style="fill:#ffffff" /></g></svg>