<?xml version="1.0" encoding="UTF-8" standalone="no"?>
<svg
   xmlns:dc="http://purl.org/dc/elements/1.1/"
   xmlns:cc="http://creativecommons.org/ns#"
   xmlns:rdf="http://www.w3.org/1999/02/22-rdf-syntax-ns#"
   xmlns:svg="http://www.w3.org/2000/svg"
   xmlns="http://www.w3.org/2000/svg"
   xmlns:sodipodi="http://sodipodi.sourceforge.net/DTD/sodipodi-0.dtd"
   xmlns:inkscape="http://www.inkscape.org/namespaces/inkscape"
   data-name="Layer 1"
   viewBox="0 0 94.736842 92.41356"
   x="0px"
   y="0px"
   version="1.1"
   id="svg14"
   sodipodi:docname="settings.svg"
   inkscape:version="0.92.2 (5c3e80d, 2017-08-06)"
   width="80"
   height="80">
  <metadata
     id="metadata20">
    <rdf:RDF>
      <cc:Work
         rdf:about="">
        <dc:format>image/svg+xml</dc:format>
        <dc:type
           rdf:resource="http://purl.org/dc/dcmitype/StillImage" />
        <dc:title>63 all</dc:title>
      </cc:Work>
    </rdf:RDF>
  </metadata>
  <defs
     id="defs18" />
  <sodipodi:namedview
     pagecolor="#ffffff"
     bordercolor="#666666"
     borderopacity="1"
     objecttolerance="10"
     gridtolerance="10"
     guidetolerance="10"
     inkscape:pageopacity="0"
     inkscape:pageshadow="2"
     inkscape:window-width="1920"
     inkscape:window-height="1017"
     id="namedview16"
     showgrid="false"
     inkscape:zoom="5.3400704"
     inkscape:cx="-21.069576"
     inkscape:cy="33.254157"
     inkscape:window-x="-8"
     inkscape:window-y="-8"
     inkscape:window-maximized="1"
     inkscape:current-layer="svg14"
     fit-margin-top="0"
     fit-margin-left="0"
     fit-margin-right="0"
     fit-margin-bottom="0"
     inkscape:pagecheckerboard="true" />
  <title
     id="title2">63 all</title>
  <path
     d="m 82.368421,43.207026 c -12.282053,0.03707 -37.34,-2.46e-4 -37.34,-2.46e-4 -2.768466,-10.870972 -18.124995,-10.779675 -21.23,0 l -11.43,2.46e-4 c -3.9999981,8.6e-5 -3.9999981,6.000086 0,6 l 11.43,-2.46e-4 c 3.105005,10.779675 18.461534,10.870972 21.23,0 0,0 24.951872,2.46e-4 37.34,2.46e-4 3.999998,0 3.999998,-6 0,-6 z m -48,8 c -4.454834,0 -6.685016,-5.385693 -3.535354,-8.535354 3.149661,-3.149662 8.535354,-0.91948 8.535354,3.535354 0,2.761424 -2.238576,5 -5,5 z"
     id="path4"
     inkscape:connector-curvature="0"
     sodipodi:nodetypes="cccssccccssss"
     style="fill:#ffffff" />
  <path
     d="m 82.368421,15.207026 c -4.628307,0.01286 -14.34,-2.46e-4 -14.34,-2.46e-4 -2.768466,-10.8709724 -18.124995,-10.7796749 -21.23,0 l -34.43,2.46e-4 c -3.9999981,2.8e-5 -3.9999981,6.000029 0,6 l 34.43,-2.46e-4 c 3.105005,10.779675 18.461534,10.870972 21.23,0 0,0 9.587865,2.46e-4 14.34,2.46e-4 3.999998,0 3.999998,-6 0,-6 z m -25,8 c -4.454834,0 -6.685016,-5.385693 -3.535354,-8.535354 3.149661,-3.149662 8.535354,-0.91948 8.535354,3.535354 0,2.761424 -2.238576,5 -5,5 z"
     id="path6"
     inkscape:connector-curvature="0"
     sodipodi:nodetypes="cccssccccssss"
     style="fill:#ffffff" />
  <path
     d="m 82.368421,71.207026 c -4.628302,0.01281 -14.34,-2.46e-4 -14.34,-2.46e-4 -2.768466,-10.870972 -18.124995,-10.779675 -21.23,0 l -34.43,2.46e-4 c -3.9999981,2.9e-5 -3.9999981,6.000029 0,6 l 34.43,-2.46e-4 c 3.105005,10.779675 18.461534,10.870972 21.23,0 0,0 9.587866,2.46e-4 14.34,2.46e-4 3.999998,0 3.999998,-6 0,-6 z m -25,8 c -4.454834,0 -6.685016,-5.385693 -3.535354,-8.535354 3.149661,-3.149662 8.535354,-0.91948 8.535354,3.535354 0,2.761424 -2.238576,5 -5,5 z"
     id="path8"
     inkscape:connector-curvature="0"
     sodipodi:nodetypes="cccssccccssss"
     style="fill:#ffffff" />
</svg>
